<svg width="34" height="34" viewBox="0 0 34 34" fill="none" xmlns="http://www.w3.org/2000/svg">
<g clip-path="url(#clip0_1_474)">
<path d="M28 17.5C28 11.4249 23.0751 6.5 17 6.5C10.9249 6.5 6 11.4249 6 17.5C6 22.9903 10.0225 27.5412 15.2812 28.3664V20.6797H12.4883V17.5H15.2812V15.0766C15.2812 12.3197 16.9235 10.7969 19.4361 10.7969C20.6392 10.7969 21.8984 11.0117 21.8984 11.0117V13.7188H20.5114C19.145 13.7188 18.7188 14.5667 18.7188 15.4375V17.5H21.7695L21.2818 20.6797H18.7188V28.3664C23.9775 27.5412 28 22.9903 28 17.5Z" fill="#E7E3DE"/>
<path d="M21.2818 20.6797L21.7695 17.5H18.7188V15.4375C18.7188 14.5676 19.145 13.7188 20.5114 13.7188H21.8984V11.0117C21.8984 11.0117 20.6397 10.7969 19.4361 10.7969C16.9235 10.7969 15.2812 12.3197 15.2812 15.0766V17.5H12.4883V20.6797H15.2812V28.3664C16.4202 28.5445 17.5798 28.5445 18.7188 28.3664V20.6797H21.2818Z" fill="#12121F"/>
</g>
<defs>
<clipPath id="clip0_1_474">
<rect width="22" height="22" fill="white" transform="translate(6 6.5)"/>
</clipPath>
</defs>
</svg>
