<svg width="34" height="34" viewBox="0 0 34 34" fill="none" xmlns="http://www.w3.org/2000/svg">
<path d="M11.79 13.748H7.81982V26.4088H11.79V13.748Z" fill="#E7E3DE"/>
<path d="M22.5294 13.4737C22.383 13.4554 22.2275 13.4463 22.072 13.4371C19.8491 13.3457 18.5958 14.663 18.1567 15.2301C18.0378 15.3857 17.9829 15.4771 17.9829 15.4771V13.7848H14.1865V26.4455H17.9829H18.1567C18.1567 25.1556 18.1567 23.8749 18.1567 22.5851C18.1567 21.8898 18.1567 21.1946 18.1567 20.4993C18.1567 19.6394 18.0927 18.7246 18.5226 17.9379C18.8886 17.2793 19.5472 16.9499 20.2882 16.9499C22.4837 16.9499 22.5294 18.935 22.5294 19.118C22.5294 19.1271 22.5294 19.1363 22.5294 19.1363V26.5004H26.4996V18.2398C26.4996 15.4131 25.0634 13.7482 22.5294 13.4737Z" fill="#E7E3DE"/>
<path d="M9.80478 12.1105C11.0779 12.1105 12.1101 11.0784 12.1101 9.80527C12.1101 8.53211 11.0779 7.5 9.80478 7.5C8.53161 7.5 7.49951 8.53211 7.49951 9.80527C7.49951 11.0784 8.53161 12.1105 9.80478 12.1105Z" fill="#E7E3DE"/>
</svg>
