<svg width="34" height="34" viewBox="0 0 34 34" fill="none" xmlns="http://www.w3.org/2000/svg">
<g clip-path="url(#clip0_1_483)">
<path d="M17 8.48086C19.9391 8.48086 20.2871 8.49375 21.443 8.54531C22.5172 8.59258 23.0973 8.77305 23.484 8.92344C23.9953 9.12109 24.3648 9.36172 24.7473 9.74414C25.134 10.1309 25.3703 10.4961 25.568 11.0074C25.7184 11.3941 25.8988 11.9785 25.9461 13.0484C25.9977 14.2086 26.0105 14.5566 26.0105 17.4914C26.0105 20.4305 25.9977 20.7785 25.9461 21.9344C25.8988 23.0086 25.7184 23.5887 25.568 23.9754C25.3703 24.4867 25.1297 24.8563 24.7473 25.2387C24.3605 25.6254 23.9953 25.8617 23.484 26.0594C23.0973 26.2098 22.5129 26.3902 21.443 26.4375C20.2828 26.4891 19.9348 26.502 17 26.502C14.0609 26.502 13.7129 26.4891 12.557 26.4375C11.4828 26.3902 10.9027 26.2098 10.516 26.0594C10.0047 25.8617 9.63516 25.6211 9.25273 25.2387C8.86602 24.852 8.62969 24.4867 8.43203 23.9754C8.28164 23.5887 8.10117 23.0043 8.05391 21.9344C8.00234 20.7742 7.98945 20.4262 7.98945 17.4914C7.98945 14.5523 8.00234 14.2043 8.05391 13.0484C8.10117 11.9742 8.28164 11.3941 8.43203 11.0074C8.62969 10.4961 8.87031 10.1266 9.25273 9.74414C9.63945 9.35742 10.0047 9.12109 10.516 8.92344C10.9027 8.77305 11.4871 8.59258 12.557 8.54531C13.7129 8.49375 14.0609 8.48086 17 8.48086ZM17 6.5C14.0137 6.5 13.6398 6.51289 12.4668 6.56445C11.298 6.61602 10.4945 6.80508 9.79844 7.07578C9.07227 7.35937 8.45781 7.7332 7.84766 8.34766C7.2332 8.95781 6.85938 9.57227 6.57578 10.2941C6.30508 10.9945 6.11602 11.7937 6.06445 12.9625C6.01289 14.1398 6 14.5137 6 17.5C6 20.4863 6.01289 20.8602 6.06445 22.0332C6.11602 23.202 6.30508 24.0055 6.57578 24.7016C6.85938 25.4277 7.2332 26.0422 7.84766 26.6523C8.45781 27.2625 9.07227 27.6406 9.79414 27.9199C10.4945 28.1906 11.2937 28.3797 12.4625 28.4312C13.6355 28.4828 14.0094 28.4957 16.9957 28.4957C19.982 28.4957 20.3559 28.4828 21.5289 28.4312C22.6977 28.3797 23.5012 28.1906 24.1973 27.9199C24.9191 27.6406 25.5336 27.2625 26.1437 26.6523C26.7539 26.0422 27.132 25.4277 27.4113 24.7059C27.682 24.0055 27.8711 23.2062 27.9227 22.0375C27.9742 20.8645 27.9871 20.4906 27.9871 17.5043C27.9871 14.518 27.9742 14.1441 27.9227 12.9711C27.8711 11.8023 27.682 10.9988 27.4113 10.3027C27.1406 9.57227 26.7668 8.95781 26.1523 8.34766C25.5422 7.7375 24.9277 7.35937 24.2059 7.08008C23.5055 6.80937 22.7062 6.62031 21.5375 6.56875C20.3602 6.51289 19.9863 6.5 17 6.5Z" fill="#E7E3DE"/>
<path d="M17 11.8496C13.8805 11.8496 11.3496 14.3805 11.3496 17.5C11.3496 20.6195 13.8805 23.1504 17 23.1504C20.1195 23.1504 22.6504 20.6195 22.6504 17.5C22.6504 14.3805 20.1195 11.8496 17 11.8496ZM17 21.1652C14.9762 21.1652 13.3348 19.5238 13.3348 17.5C13.3348 15.4762 14.9762 13.8348 17 13.8348C19.0238 13.8348 20.6652 15.4762 20.6652 17.5C20.6652 19.5238 19.0238 21.1652 17 21.1652Z" fill="#E7E3DE"/>
<path d="M24.193 11.6258C24.193 12.3563 23.6 12.9449 22.8738 12.9449C22.1434 12.9449 21.5547 12.352 21.5547 11.6258C21.5547 10.8953 22.1477 10.3066 22.8738 10.3066C23.6 10.3066 24.193 10.8996 24.193 11.6258Z" fill="#E7E3DE"/>
</g>
<defs>
<clipPath id="clip0_1_483">
<rect width="22" height="22" fill="white" transform="translate(6 6.5)"/>
</clipPath>
</defs>
</svg>
