<svg width="18" height="18" viewBox="0 0 18 18" fill="none" xmlns="http://www.w3.org/2000/svg">
<path d="M3.91188 5.69629H0.291992V17.2399H3.91188V5.69629Z" fill="#E7E3DE"/>
<path d="M13.7039 5.44667C13.5705 5.42999 13.4287 5.42165 13.2869 5.41331C11.2601 5.3299 10.1174 6.53097 9.71705 7.0481C9.60862 7.18989 9.55858 7.2733 9.55858 7.2733V5.73026H6.09717V17.2738H9.55858H9.71705C9.71705 16.0978 9.71705 14.9301 9.71705 13.7541C9.71705 13.1202 9.71705 12.4863 9.71705 11.8524C9.71705 11.0683 9.65867 10.2343 10.0507 9.51696C10.3843 8.91642 10.9848 8.61616 11.6604 8.61616C13.6622 8.61616 13.7039 10.4261 13.7039 10.5929C13.7039 10.6013 13.7039 10.6096 13.7039 10.6096V17.3239H17.3238V9.7922C17.3238 7.21491 16.0143 5.6969 13.7039 5.44667Z" fill="#E7E3DE"/>
<path d="M2.10186 4.20373C3.26269 4.20373 4.20373 3.26269 4.20373 2.10187C4.20373 0.941038 3.26269 0 2.10186 0C0.941033 0 0 0.941038 0 2.10187C0 3.26269 0.941033 4.20373 2.10186 4.20373Z" fill="#E7E3DE"/>
</svg>
