<svg width="21" height="18" viewBox="0 0 21 18" fill="none" xmlns="http://www.w3.org/2000/svg">
<path fill-rule="evenodd" clip-rule="evenodd" d="M11.3244 17.671C11.1057 17.8817 10.8092 18 10.5 18C10.1908 18 9.89433 17.8817 9.67558 17.671L0.342583 8.67203C0.234116 8.56764 0.148033 8.44367 0.0892525 8.30721C0.0304718 8.17074 0.000144958 8.02445 0 7.87668C-0.000291824 7.57825 0.122379 7.29193 0.341028 7.08071C0.559677 6.86949 0.856392 6.75067 1.1659 6.75038C1.47541 6.7501 1.77235 6.86839 1.99141 7.07921L9.33337 14.1584V1.12487C9.33337 0.826538 9.45629 0.540423 9.67507 0.329468C9.89386 0.118513 10.1906 -4.72494e-07 10.5 -4.5897e-07C10.8094 -4.45445e-07 11.1061 0.118513 11.3249 0.329468C11.5437 0.540423 11.6666 0.826539 11.6666 1.12487V14.1584L19.0086 7.07921C19.2276 6.86839 19.5246 6.7501 19.8341 6.75038C20.1436 6.75067 20.4403 6.86949 20.659 7.08071C20.8776 7.29193 21.0003 7.57825 21 7.87668C20.9997 8.17511 20.8765 8.46121 20.6574 8.67203L11.3244 17.671Z" fill="#262633"/>
</svg>
