<svg width="87" height="50" viewBox="0 0 87 50" fill="none" xmlns="http://www.w3.org/2000/svg">
<path d="M10.015 31.3891H9.48167L22.7708 0.222618L23.2597 0L34.4599 31.3891H30.6821L27.2154 21.5939H14.2373L10.015 31.3891ZM21.393 5.03117L14.4151 21.1487H27.082L21.393 5.03117Z" fill="#262633"/>
<path d="M45.3827 31.3891H41.6938V0.667853H34.0047V0.222618H53.1162V0.667853H45.3827V31.3891Z" fill="#262633"/>
<path d="M57.1712 0.667853V0.222618H75.3049V0.667853L59.6157 30.9439H72.9937C73.853 30.9439 74.6382 30.7955 75.3493 30.4987C76.0604 30.2018 76.5345 29.7714 76.7716 29.2075L77.1271 29.3856C77.0679 29.534 76.9642 29.7269 76.816 29.9644C76.6975 30.1722 76.2975 30.469 75.616 30.8549C74.9345 31.211 74.1048 31.3891 73.127 31.3891H56.0156V30.9439L71.6159 0.667853H57.1712Z" fill="#262633"/>
<path d="M5.17047 50C3.32352 50 1.95559 49.4756 1.06669 48.4268C0.750632 48.0509 0.493837 47.5512 0.296302 46.9279C0.0987674 46.3045 0 45.5476 0 44.6572C0 43.7667 0.143213 42.9702 0.429638 42.2677C0.72594 41.5554 1.12595 41.0062 1.62966 40.6204C2.60746 39.8981 3.78773 39.537 5.17047 39.537C5.56554 39.537 5.95074 39.5716 6.32605 39.6408C6.70137 39.7002 6.98286 39.7645 7.17051 39.8338L7.43719 39.9377L7.39274 40.0861C6.72112 39.8189 5.98037 39.6854 5.17047 39.6854C4.12354 39.6854 3.24945 40.0267 2.5482 40.7094C2.01486 41.214 1.63954 41.9561 1.42225 42.9356C1.29385 43.4897 1.22965 44.1674 1.22965 44.9688C1.22965 45.7703 1.34324 46.5123 1.5704 47.195C1.79757 47.8678 2.05436 48.3675 2.34079 48.694C2.63709 49.0205 2.99265 49.2827 3.40748 49.4806C3.8223 49.6685 4.15317 49.7774 4.40009 49.8071C4.64701 49.8367 4.94331 49.8516 5.28899 49.8516C5.64456 49.8516 6.04457 49.817 6.48902 49.7477C6.93347 49.6784 7.26928 49.6141 7.49645 49.5548L7.83719 49.4509L7.88164 49.5993C7.13101 49.8664 6.22729 50 5.17047 50Z" fill="#262633"/>
<path d="M8.40584 44.9985C8.40584 43.1978 8.84042 41.8324 9.70957 40.9023C10.5886 39.9624 11.7145 39.4924 13.0874 39.4924C14.4603 39.4924 15.5517 39.8981 16.3616 40.7094C17.1813 41.5207 17.5912 42.8169 17.5912 44.5978C17.5912 46.3787 17.1566 47.7243 16.2875 48.6346C15.4183 49.5449 14.2578 50 12.8059 50C11.5516 50 10.5244 49.6389 9.72439 48.9166C9.30956 48.5406 8.98363 48.0212 8.74659 47.3583C8.51942 46.6855 8.40584 45.8989 8.40584 44.9985ZM13.043 39.6408C12.0454 39.6408 11.2256 40.0861 10.5837 40.9765C9.95155 41.867 9.63549 43.173 9.63549 44.8946C9.63549 46.6162 9.93673 47.8728 10.5392 48.6643C11.1417 49.4558 11.9417 49.8516 12.9393 49.8516C13.9467 49.8516 14.7665 49.4063 15.3986 48.5159C16.0406 47.6155 16.3616 46.3144 16.3616 44.6126C16.3616 42.901 16.0554 41.6444 15.443 40.843C14.8405 40.0416 14.0405 39.6408 13.043 39.6408Z" fill="#262633"/>
<path d="M24.85 49.9406H19.2203V39.5518H20.4499V49.7922H24.85V49.9406Z" fill="#262633"/>
<path d="M31.9682 49.9406H26.3385V39.5518H27.5681V49.7922H31.9682V49.9406Z" fill="#262633"/>
<path d="M39.3531 39.5518V39.7002H34.6863V44.1526H39.0124V44.301H34.6863V49.7922H39.679V49.9406H33.4567V39.5518H39.3531Z" fill="#262633"/>
<path d="M45.6661 50C43.8191 50 42.4512 49.4756 41.5623 48.4268C41.2462 48.0509 40.9894 47.5512 40.7919 46.9279C40.5944 46.3045 40.4956 45.5476 40.4956 44.6572C40.4956 43.7667 40.6388 42.9702 40.9252 42.2677C41.2215 41.5554 41.6216 41.0062 42.1253 40.6204C43.1031 39.8981 44.2833 39.537 45.6661 39.537C46.0611 39.537 46.4463 39.5716 46.8217 39.6408C47.197 39.7002 47.4785 39.7645 47.6661 39.8338L47.9328 39.9377L47.8883 40.0861C47.2167 39.8189 46.476 39.6854 45.6661 39.6854C44.6191 39.6854 43.745 40.0267 43.0438 40.7094C42.5105 41.214 42.1351 41.9561 41.9179 42.9356C41.7895 43.4897 41.7253 44.1674 41.7253 44.9688C41.7253 45.7703 41.8388 46.5123 42.066 47.195C42.2932 47.8678 42.55 48.3675 42.8364 48.694C43.1327 49.0205 43.4883 49.2827 43.9031 49.4806C44.3179 49.6685 44.6488 49.7774 44.8957 49.8071C45.1426 49.8367 45.4389 49.8516 45.7846 49.8516C46.1402 49.8516 46.5402 49.817 46.9846 49.7477C47.4291 49.6784 47.7649 49.6141 47.9921 49.5548L48.3328 49.4509L48.3772 49.5993C47.6266 49.8664 46.7229 50 45.6661 50Z" fill="#262633"/>
<path d="M53.1357 49.9406H51.906V39.7002H49.343V39.5518H55.7135V39.7002H53.1357V49.9406Z" fill="#262633"/>
<path d="M57.1985 39.7002V39.5518H59.8356V39.7002H59.1096V49.7922H59.8356V49.9406H57.1985V49.7922H57.88V39.7002H57.1985Z" fill="#262633"/>
<path d="M61.3294 44.9985C61.3294 43.1978 61.7639 41.8324 62.6331 40.9023C63.5121 39.9624 64.6381 39.4924 66.0109 39.4924C67.3838 39.4924 68.4752 39.8981 69.2851 40.7094C70.1048 41.5207 70.5147 42.8169 70.5147 44.5978C70.5147 46.3787 70.0801 47.7243 69.211 48.6346C68.3418 49.5449 67.1813 50 65.7294 50C64.4751 50 63.4479 49.6389 62.6479 48.9166C62.2331 48.5406 61.9071 48.0212 61.6701 47.3583C61.4429 46.6855 61.3294 45.8989 61.3294 44.9985ZM65.9665 39.6408C64.9689 39.6408 64.1492 40.0861 63.5072 40.9765C62.8751 41.867 62.559 43.173 62.559 44.8946C62.559 46.6162 62.8602 47.8728 63.4627 48.6643C64.0652 49.4558 64.8652 49.8516 65.8628 49.8516C66.8702 49.8516 67.69 49.4063 68.3221 48.5159C68.9641 47.6155 69.2851 46.3144 69.2851 44.6126C69.2851 42.901 68.9789 41.6444 68.3665 40.843C67.764 40.0416 66.964 39.6408 65.9665 39.6408Z" fill="#262633"/>
<path d="M72.2623 49.9406H72.0697V39.5518H72.5734L78.7365 49.1541V39.5518H78.9291V49.9406H77.8476L72.2623 41.3327V49.9406Z" fill="#262633"/>
<path d="M86.3926 40.1751C85.4938 39.8288 84.6444 39.6557 83.8444 39.6557C83.0543 39.6557 82.437 39.8239 81.9925 40.1603C81.548 40.4967 81.3258 40.9617 81.3258 41.5554C81.3258 42.2776 81.7011 42.8366 82.4518 43.2324C82.7876 43.4006 83.153 43.5589 83.5481 43.7073C83.953 43.8458 84.358 44.0042 84.7629 44.1822C85.1679 44.3603 85.5382 44.5632 85.8741 44.7907C86.2099 45.0183 86.4815 45.3349 86.6889 45.7406C86.8963 46.1363 87 46.6459 87 47.2692C87 47.8827 86.8272 48.407 86.4815 48.8424C86.1358 49.2777 85.716 49.5746 85.2222 49.7329C84.7382 49.8813 84.1703 49.9555 83.5185 49.9555C82.3036 49.9555 81.2666 49.6537 80.4073 49.0502L80.4814 48.9314C80.8073 49.1887 81.2271 49.4014 81.7406 49.5696C82.2641 49.7279 82.7975 49.8071 83.3407 49.8071C84.1407 49.8071 84.8222 49.624 85.3852 49.2579C85.958 48.882 86.2444 48.3328 86.2444 47.6106C86.2444 46.819 85.8691 46.2006 85.1185 45.7554C84.7827 45.5575 84.4123 45.3745 84.0073 45.2063C83.6123 45.0381 83.2123 44.8649 82.8073 44.6868C82.4024 44.4989 82.032 44.2911 81.6962 44.0635C80.9456 43.5688 80.5702 42.8663 80.5702 41.9561C80.5702 41.2338 80.8122 40.65 81.2962 40.2048C81.7802 39.7497 82.5061 39.5221 83.474 39.5221C84.4518 39.5221 85.4444 39.6903 86.4518 40.0267L86.3926 40.1751Z" fill="#262633"/>
</svg>
