<svg width="34" height="34" viewBox="0 0 34 34" fill="none" xmlns="http://www.w3.org/2000/svg">
<g clip-path="url(#clip0_1_465)">
<path d="M27.5615 12.17C27.4371 11.702 27.192 11.2748 26.8506 10.9313C26.5093 10.5877 26.0837 10.3399 25.6165 10.2125C23.8965 9.75 17.0215 9.75 17.0215 9.75C17.0215 9.75 10.1465 9.75 8.42648 10.2125C7.95925 10.3399 7.53367 10.5877 7.19233 10.9313C6.85099 11.2748 6.60586 11.702 6.48148 12.17C6.02148 13.8975 6.02148 17.5 6.02148 17.5C6.02148 17.5 6.02148 21.1025 6.48148 22.83C6.60586 23.298 6.85099 23.7252 7.19233 24.0687C7.53367 24.4123 7.95925 24.6601 8.42648 24.7875C10.1465 25.25 17.0215 25.25 17.0215 25.25C17.0215 25.25 23.8965 25.25 25.6165 24.7875C26.0837 24.6601 26.5093 24.4123 26.8506 24.0687C27.192 23.7252 27.4371 23.298 27.5615 22.83C28.0215 21.1025 28.0215 17.5 28.0215 17.5C28.0215 17.5 28.0215 13.8975 27.5615 12.17Z" fill="#E7E3DE"/>
<path d="M14.7715 20.771V14.2285L20.5215 17.4998L14.7715 20.771Z" fill="#12121F"/>
</g>
<defs>
<clipPath id="clip0_1_465">
<rect width="22" height="22" fill="white" transform="translate(6 6.5)"/>
</clipPath>
</defs>
</svg>
